<svg width="12" height="12" viewBox="0 0 12 12" fill="none" xmlns="http://www.w3.org/2000/svg">
<path d="M7.34714 5.43061C7.69999 5.43061 7.98603 5.14457 7.98603 4.79172C7.98603 4.43887 7.69999 4.15283 7.34714 4.15283C6.99429 4.15283 6.70825 4.43887 6.70825 4.79172C6.70825 5.14457 6.99429 5.43061 7.34714 5.43061Z" fill="#8949BA"/>
<path d="M4.1528 5.43061C4.50565 5.43061 4.79169 5.14457 4.79169 4.79172C4.79169 4.43887 4.50565 4.15283 4.1528 4.15283C3.79996 4.15283 3.51392 4.43887 3.51392 4.79172C3.51392 5.14457 3.79996 5.43061 4.1528 5.43061Z" fill="#8949BA"/>
<path d="M5.74558 1.27783C3.27692 1.27783 1.27783 3.28139 1.27783 5.75005C1.27783 8.21872 3.27692 10.2223 5.74558 10.2223C8.21872 10.2223 10.2223 8.21872 10.2223 5.75005C10.2223 3.28139 8.21872 1.27783 5.74558 1.27783ZM5.75005 9.32783C3.77333 9.32783 2.17228 7.72678 2.17228 5.75005C2.17228 3.77333 3.77333 2.17228 5.75005 2.17228C7.72678 2.17228 9.32783 3.77333 9.32783 5.75005C9.32783 7.72678 7.72678 9.32783 5.75005 9.32783ZM7.7223 6.5953C7.56578 6.49692 7.35558 6.54611 7.26167 6.70264C6.93072 7.22589 6.36722 7.53894 5.75005 7.53894C5.13289 7.53894 4.56939 7.22589 4.23844 6.69817C4.14005 6.54164 3.93433 6.49244 3.7778 6.59083C3.62128 6.68922 3.57208 6.89494 3.67047 7.05147C4.12664 7.78044 4.90033 8.20978 5.75005 8.20978C6.59978 8.20978 7.37347 7.77597 7.82964 7.05594C7.92803 6.89942 7.87883 6.69369 7.7223 6.5953Z" fill="#8949BA"/>
</svg>
