<svg width="20" height="20" viewBox="0 0 20 20" fill="none" xmlns="http://www.w3.org/2000/svg">
<path d="M16.075 14.4085L15 13.3335V9.16683C15 6.6085 13.6334 4.46683 11.25 3.90016V3.3335C11.25 2.64183 10.6917 2.0835 10 2.0835C9.30838 2.0835 8.75004 2.64183 8.75004 3.3335V3.90016C6.35838 4.46683 5.00004 6.60016 5.00004 9.16683V13.3335L3.92504 14.4085C3.40004 14.9335 3.76671 15.8335 4.50838 15.8335H15.4834C16.2334 15.8335 16.6 14.9335 16.075 14.4085ZM13.3334 14.1668H6.66671V9.16683C6.66671 7.10016 7.92504 5.41683 10 5.41683C12.075 5.41683 13.3334 7.10016 13.3334 9.16683V14.1668ZM10 18.3335C10.9167 18.3335 11.6667 17.5835 11.6667 16.6668H8.33338C8.33338 17.5835 9.07504 18.3335 10 18.3335Z" fill="#6C6C6C"/>
<path d="M12 6.5C12 4.567 13.567 3 15.5 3C17.433 3 19 4.567 19 6.5C19 8.433 17.433 10 15.5 10C13.567 10 12 8.433 12 6.5Z" fill="white"/>
<path d="M13 6.5C13 5.11929 14.1193 4 15.5 4C16.8807 4 18 5.11929 18 6.5C18 7.88071 16.8807 9 15.5 9C14.1193 9 13 7.88071 13 6.5Z" fill="#E37F65"/>
</svg>
