<svg width="12" height="12" viewBox="0 0 12 12" fill="none" xmlns="http://www.w3.org/2000/svg">
<path d="M9.11111 2H2.88889C2.4 2 2 2.4 2 2.88889V9.11111C2 9.6 2.4 10 2.88889 10H9.11111C9.6 10 10 9.6 10 9.11111V2.88889C10 2.4 9.6 2 9.11111 2ZM8.66667 9.11111H3.33333C3.08889 9.11111 2.88889 8.91111 2.88889 8.66667V3.33333C2.88889 3.08889 3.08889 2.88889 3.33333 2.88889H8.66667C8.91111 2.88889 9.11111 3.08889 9.11111 3.33333V8.66667C9.11111 8.91111 8.91111 9.11111 8.66667 9.11111ZM6.69333 6.36L5.64889 7.70222L4.95556 6.86667C4.86667 6.75556 4.69778 6.76 4.60889 6.87111L3.83556 7.86222C3.72 8.00889 3.82667 8.22222 4.00889 8.22222H8C8.18222 8.22222 8.28889 8.01333 8.17778 7.86667L7.04444 6.36C6.96 6.24444 6.78222 6.24444 6.69333 6.36Z" fill="#8949BA"/>
</svg>
