<svg width="20" height="20" viewBox="0 0 20 20" fill="none" xmlns="http://www.w3.org/2000/svg">
<path d="M13.4983 12.1729H12.8032L12.5569 11.9354C13.6127 10.7044 14.1582 9.02481 13.8591 7.23974C13.4455 4.79516 11.4043 2.84301 8.94065 2.54403C5.21884 2.08677 2.08653 5.21724 2.54406 8.93688C2.84321 11.399 4.7965 13.4391 7.24252 13.8524C9.02864 14.1514 10.7092 13.6062 11.941 12.551L12.1785 12.7972V13.4919L15.918 17.2291C16.2787 17.5896 16.8682 17.5896 17.229 17.2291C17.5897 16.8686 17.5897 16.2794 17.229 15.9189L13.4983 12.1729ZM8.21917 12.1729C6.02831 12.1729 4.25979 10.4054 4.25979 8.21581C4.25979 6.02624 6.02831 4.25875 8.21917 4.25875C10.41 4.25875 12.1785 6.02624 12.1785 8.21581C12.1785 10.4054 10.41 12.1729 8.21917 12.1729Z" fill="#6C6C6C"/>
</svg>
