<svg width="25" height="25" viewBox="0 0 25 25" fill="none" xmlns="http://www.w3.org/2000/svg">
<path d="M4.97681 14.608H6.97681C7.52681 14.608 7.97681 14.1451 7.97681 13.5794V11.5223C7.97681 10.9565 7.52681 10.4937 6.97681 10.4937H4.97681C4.42681 10.4937 3.97681 10.9565 3.97681 11.5223V13.5794C3.97681 14.1451 4.42681 14.608 4.97681 14.608ZM4.97681 19.7508H6.97681C7.52681 19.7508 7.97681 19.288 7.97681 18.7223V16.6651C7.97681 16.0994 7.52681 15.6365 6.97681 15.6365H4.97681C4.42681 15.6365 3.97681 16.0994 3.97681 16.6651V18.7223C3.97681 19.288 4.42681 19.7508 4.97681 19.7508ZM4.97681 9.46512H6.97681C7.52681 9.46512 7.97681 9.00226 7.97681 8.43654V6.3794C7.97681 5.81369 7.52681 5.35083 6.97681 5.35083H4.97681C4.42681 5.35083 3.97681 5.81369 3.97681 6.3794V8.43654C3.97681 9.00226 4.42681 9.46512 4.97681 9.46512ZM9.97681 14.608H20.9768C21.5268 14.608 21.9768 14.1451 21.9768 13.5794V11.5223C21.9768 10.9565 21.5268 10.4937 20.9768 10.4937H9.97681C9.42681 10.4937 8.97681 10.9565 8.97681 11.5223V13.5794C8.97681 14.1451 9.42681 14.608 9.97681 14.608ZM9.97681 19.7508H20.9768C21.5268 19.7508 21.9768 19.288 21.9768 18.7223V16.6651C21.9768 16.0994 21.5268 15.6365 20.9768 15.6365H9.97681C9.42681 15.6365 8.97681 16.0994 8.97681 16.6651V18.7223C8.97681 19.288 9.42681 19.7508 9.97681 19.7508ZM8.97681 6.3794V8.43654C8.97681 9.00226 9.42681 9.46512 9.97681 9.46512H20.9768C21.5268 9.46512 21.9768 9.00226 21.9768 8.43654V6.3794C21.9768 5.81369 21.5268 5.35083 20.9768 5.35083H9.97681C9.42681 5.35083 8.97681 5.81369 8.97681 6.3794Z" fill="#47505F"/>
</svg>
